<?xml version="1.0" standalone="no"?>
<!DOCTYPE svg PUBLIC "-//W3C//DTD SVG 20010904//EN"
 "http://www.w3.org/TR/2001/REC-SVG-20010904/DTD/svg10.dtd">
<svg version="1.0" xmlns="http://www.w3.org/2000/svg"
 width="225.000000pt" height="225.000000pt" viewBox="0 0 225.000000 225.000000"
 preserveAspectRatio="xMidYMid meet">

<g transform="translate(0.000000,225.000000) scale(0.100000,-0.100000)"
fill="#000000" stroke="none">
<path d="M100 2230 c-23 -23 -25 -48 -6 -75 8 -11 83 -49 169 -85 l156 -65 3
-720 c3 -680 4 -722 22 -755 36 -68 124 -140 170 -140 24 0 27 -15 11 -54 -37
-87 -3 -213 73 -276 192 -159 481 41 397 275 -8 22 -15 41 -15 43 0 1 126 2
280 2 l281 0 -17 -32 c-22 -42 -22 -141 0 -193 21 -50 69 -100 121 -128 55
-30 163 -29 221 1 48 25 101 81 121 131 38 89 2 229 -72 286 -75 57 -52 55
-732 55 -578 0 -631 1 -662 18 -62 31 -75 60 -79 179 -4 98 -3 106 13 99 64
-24 138 -27 765 -24 616 3 668 4 701 21 47 24 95 71 122 121 21 39 22 55 25
343 2 197 -1 309 -7 322 -6 11 -23 22 -38 25 -16 3 -372 53 -793 111 -421 58
-771 107 -777 110 -10 3 -13 38 -13 128 0 88 -4 128 -12 135 -19 15 -374 162
-392 162 -9 0 -25 -9 -36 -20z m1205 -635 c385 -52 710 -98 723 -101 l23 -5
-3 -254 c-3 -238 -4 -255 -24 -282 -48 -65 -22 -63 -729 -63 -707 0 -681 -2
-729 63 -20 27 -21 43 -24 389 l-3 360 33 -5 c18 -4 348 -49 733 -102z m-380
-1235 c18 -11 41 -36 50 -56 60 -127 -118 -241 -209 -133 -35 41 -42 75 -25
123 27 77 115 108 184 66z m985 5 c44 -23 70 -62 70 -107 0 -76 -49 -129 -119
-130 -78 -1 -131 52 -131 129 0 89 100 149 180 108z"/>
</g>
</svg>
