<?xml version="1.0" standalone="no"?>
<!DOCTYPE svg PUBLIC "-//W3C//DTD SVG 20010904//EN"
 "http://www.w3.org/TR/2001/REC-SVG-20010904/DTD/svg10.dtd">
<svg version="1.0" xmlns="http://www.w3.org/2000/svg"
 width="225.000000pt" height="225.000000pt" viewBox="0 0 225.000000 225.000000"
 preserveAspectRatio="xMidYMid meet">

<g transform="translate(0.000000,225.000000) scale(0.100000,-0.100000)"
fill="#000000" stroke="none">
<path d="M599 1981 c-167 -53 -283 -172 -333 -340 -24 -81 -24 -950 0 -1032
50 -170 172 -292 343 -343 81 -24 951 -24 1032 0 171 51 293 173 343 343 24
82 24 951 0 1032 -51 171 -173 293 -343 343 -47 14 -122 16 -520 15 -418 0
-472 -2 -522 -18z m1069 -154 c67 -35 124 -92 159 -159 l28 -53 0 -490 0 -490
-28 -53 c-35 -67 -92 -124 -159 -159 l-53 -28 -490 0 -490 0 -53 28 c-67 35
-124 92 -159 159 l-28 53 0 490 0 490 28 53 c45 86 126 154 217 183 14 4 239
7 500 6 l475 -2 53 -28z"/>
<path d="M1544 1680 c-66 -27 -85 -120 -35 -171 56 -55 159 -26 176 50 10 45
-18 99 -59 116 -40 17 -52 17 -82 5z"/>
<path d="M1052 1539 c-80 -14 -161 -56 -223 -118 -165 -166 -165 -426 0 -592
166 -165 426 -165 592 0 252 253 97 680 -261 714 -30 3 -79 1 -108 -4z m182
-154 c53 -22 120 -88 147 -143 17 -35 23 -65 23 -117 0 -86 -27 -146 -89 -204
-61 -56 -107 -74 -190 -74 -83 0 -129 18 -190 74 -62 58 -89 118 -89 204 0 87
27 146 90 205 84 77 195 98 298 55z"/>
</g>
</svg>
